<svg height="512" viewBox="0 0 64 64" width="512" xmlns="http://www.w3.org/2000/svg"><g id="flat"><rect fill="#394d5c" height="58" rx="6" width="34" x="15" y="3"/><path d="m43 57h-22a2 2 0 0 1 -2-2v-46a2 2 0 0 1 2-2h22a2 2 0 0 1 2 2v46z" fill="#aabece"/><circle cx="24" cy="12" fill="#fcf05a" r="2"/><path d="m28 11h10v2h-10z" fill="#394d5c"/><path d="m34 47h11a0 0 0 0 1 0 0v10a0 0 0 0 1 0 0h-13a0 0 0 0 1 0 0v-8a2 2 0 0 1 2-2z" fill="#7d8d9c" transform="matrix(-1 0 0 -1 77 104)"/><path d="m29 54h-2v-1a1 1 0 0 0 -1-1h-1a1 1 0 0 0 -1 1v1h-2v-1a3 3 0 0 1 3-3h1a3 3 0 0 1 3 3z" fill="#da1c4b"/><path d="m39 54h-1a3 3 0 0 1 -3-3v-1h2v1a1 1 0 0 0 1 1h1a1 1 0 0 0 1-1v-1h2v1a3 3 0 0 1 -3 3z" fill="#8ec13f"/><path d="m19 17h26v30h-26z" fill="#f4f4e6"/><g fill="#394d5c"><path d="m31 28v8h10v-8zm4 6h-2v-4h2zm4 0h-2v-4h2z"/><path d="m27 33h2v2h-2z"/><path d="m23 28h2v8h-2z"/><path d="m27 29h2v2h-2z"/></g></g></svg>